<svg width="964" height="243" viewBox="0 0 964 243" fill="none" xmlns="http://www.w3.org/2000/svg">
<g clip-path="url(#clip0_1011_1017)">
<path d="M148.846 144.562C148.846 159.75 161.158 172.062 176.346 172.062H207.012V185.865H176.346C161.158 185.865 148.846 198.177 148.846 213.365V243.045H136.029V213.365C136.029 198.177 123.717 185.865 108.529 185.865H77.8633V172.062H108.529C123.717 172.062 136.029 159.75 136.029 144.562V113.896H148.846V144.562Z" fill="white"/>
<path d="M170.946 31.8766C160.207 42.616 160.207 60.0281 170.946 70.7675L192.631 92.4516L182.871 102.212L161.186 80.5275C150.447 69.7881 133.035 69.7881 122.296 80.5275L101.309 101.514L92.2456 92.4509L113.232 71.4642C123.972 60.7248 123.972 43.3128 113.232 32.5733L91.5488 10.8899L101.309 1.12988L122.993 22.814C133.732 33.5533 151.144 33.5534 161.884 22.814L183.568 1.12988L192.631 10.1925L170.946 31.8766Z" fill="white"/>
<path d="M79.0525 75.3259C75.1216 89.9962 83.8276 105.076 98.498 109.006L128.119 116.943L124.547 130.275L94.9267 122.338C80.2564 118.407 65.1772 127.113 61.2463 141.784L53.5643 170.453L41.1837 167.136L48.8654 138.467C52.7963 123.797 44.0902 108.718 29.4199 104.787L-0.201172 96.8497L3.37124 83.5173L32.9923 91.4542C47.6626 95.3851 62.7419 86.679 66.6728 72.0088L74.6098 42.3877L86.9895 45.7048L79.0525 75.3259Z" fill="white"/>
<path d="M218.413 71.4229C222.344 86.093 237.423 94.7992 252.094 90.8683L281.715 82.9313L285.287 96.2628L255.666 104.2C240.995 108.131 232.29 123.21 236.22 137.88L243.902 166.55L231.522 169.867L223.841 141.198C219.91 126.528 204.831 117.822 190.16 121.753L160.539 129.69L156.967 116.357L186.588 108.42C201.258 104.49 209.964 89.4103 206.033 74.74L198.096 45.1189L210.476 41.8018L218.413 71.4229Z" fill="white"/>
<path d="M334.175 100.475C327.258 100.475 321.205 94.4225 321.205 87.5053V-0.401367H338.498V21.215C338.498 25.106 341.813 28.4205 345.704 28.4205H371.643C378.561 28.4205 384.613 34.4731 384.613 41.3903V87.5053C384.613 94.4225 378.561 100.475 371.643 100.475H334.175ZM338.498 73.0943C338.498 80.8762 345.127 87.5053 352.909 87.5053C360.691 87.5053 367.32 80.8762 367.32 73.0943V55.8012C367.32 48.0193 360.691 41.3903 352.909 41.3903C345.127 41.3903 338.498 48.0193 338.498 55.8012V73.0943Z" fill="white"/>
<path d="M397.589 100.475V-0.401367H414.882V100.475H397.589Z" fill="white"/>
<path d="M440.855 100.475C433.938 100.475 427.885 94.4225 427.885 87.5053V76.2647C427.885 71.5091 431.488 66.1771 435.955 64.4478L465.065 52.919C470.253 50.9015 468.956 44.2725 463.48 44.2725H428.75V28.4205H474C480.917 28.4205 486.97 34.4731 486.97 41.3903V87.5053C486.97 94.4225 480.917 100.475 474 100.475H440.855ZM446.764 78.8587C446.764 85.1995 452.24 90.3874 458.581 90.3874C464.633 90.3874 469.821 85.1995 469.821 78.8587C469.821 72.8061 464.633 67.33 458.581 67.33C452.24 67.33 446.764 72.8061 446.764 78.8587Z" fill="white"/>
<path d="M512.944 100.475C506.026 100.475 499.974 94.4225 499.974 87.5053V41.3903C499.974 34.4731 506.026 28.4205 512.944 28.4205H553.871V44.2725H525.913C521.158 44.2725 517.267 48.1634 517.267 52.919V75.9765C517.267 80.7321 521.158 84.6231 525.913 84.6231H553.871V100.475H512.944Z" fill="white"/>
<path d="M566.292 100.475V-0.401367H583.585V47.8752C583.585 52.0544 588.341 54.0719 591.079 50.7574L609.381 28.4205H632.006L609.813 55.8012C607.219 58.9716 606.931 63.1508 609.237 66.6094L632.294 100.475H611.254L591.799 72.0856C589.061 68.0505 583.585 70.2122 583.585 74.8236V100.475H566.292Z" fill="white"/>
<path d="M339.13 214.1C332.213 214.1 326.16 208.048 326.16 201.131V189.89C326.16 185.135 329.763 179.802 334.23 178.073L363.34 166.544C368.528 164.527 367.231 157.898 361.755 157.898H327.025V142.046H372.275C379.192 142.046 385.245 148.098 385.245 155.016V201.131C385.245 208.048 379.192 214.1 372.275 214.1H339.13ZM345.038 192.484C345.038 198.825 350.515 204.013 356.855 204.013C362.908 204.013 368.096 198.825 368.096 192.484C368.096 186.432 362.908 180.955 356.855 180.955C350.515 180.955 345.038 186.432 345.038 192.484Z" fill="white"/>
<path d="M398.249 214.1V113.224H415.542V214.1H398.249Z" fill="white"/>
<path d="M428.689 242.922V227.07H469.616C473.219 227.07 476.101 224.188 476.101 220.585C476.101 216.983 473.219 214.1 469.616 214.1H441.515C434.598 214.1 428.545 208.048 428.545 201.131V155.016C428.545 148.098 434.598 142.046 441.515 142.046H478.983C485.901 142.046 491.953 148.098 491.953 155.016V229.952C491.953 236.87 485.901 242.922 478.983 242.922H428.689ZM445.838 186.72C445.838 194.502 452.467 201.131 460.249 201.131C468.031 201.131 474.66 194.502 474.66 186.72V169.427C474.66 161.645 468.031 155.016 460.249 155.016C452.467 155.016 445.838 161.645 445.838 169.427V186.72Z" fill="white"/>
<path d="M516.457 214.1C509.54 214.1 503.488 208.048 503.488 201.131V155.016C503.488 148.098 509.54 142.046 516.457 142.046H553.926C560.843 142.046 566.896 148.098 566.896 155.016V201.131C566.896 208.048 560.843 214.1 553.926 214.1H516.457ZM520.781 186.72C520.781 194.502 527.41 201.131 535.192 201.131C542.974 201.131 549.603 194.502 549.603 186.72V169.427C549.603 161.645 542.974 155.016 535.192 155.016C527.41 155.016 520.781 161.645 520.781 169.427V186.72Z" fill="white"/>
<path d="M578.43 150.692C578.43 145.937 582.321 142.046 587.077 142.046H623.68V157.898H604.37C599.614 157.898 595.723 161.789 595.723 166.544V214.1H578.43V150.692Z" fill="white"/>
<path d="M631.284 214.1V142.046H648.577V214.1H631.284ZM628.114 124.176C628.114 117.547 633.446 112.359 639.931 112.359C646.416 112.359 651.892 117.547 651.892 124.176C651.892 130.517 646.416 136.137 639.931 136.137C633.446 136.137 628.114 130.517 628.114 124.176Z" fill="white"/>
<path d="M673.452 214.1C666.535 214.1 660.482 208.048 660.482 201.131V118.412H677.775V133.399C677.775 138.155 681.666 142.046 686.422 142.046H709.335V157.898H686.422C681.666 157.898 677.775 161.789 677.775 166.544V189.602C677.775 194.358 681.666 198.248 686.422 198.248H709.335V214.1H673.452Z" fill="white"/>
<path d="M717.411 214.1V113.224H734.704V134.84C734.704 138.731 738.019 142.046 741.91 142.046H767.849C774.766 142.046 780.819 148.098 780.819 155.016V214.1H763.526V169.427C763.526 161.645 756.897 155.016 749.115 155.016C741.333 155.016 734.704 161.645 734.704 169.427V214.1H717.411Z" fill="white"/>
<path d="M792.353 155.016C792.353 148.098 798.406 142.046 805.323 142.046H883.142C890.059 142.046 896.112 148.098 896.112 155.016V214.1H878.819V167.986C878.819 161.068 872.766 155.016 865.849 155.016C858.932 155.016 852.879 161.068 852.879 167.986V214.1H835.586V167.986C835.586 161.068 829.534 155.016 822.616 155.016C815.699 155.016 809.647 161.068 809.647 167.986V214.1H792.353V155.016Z" fill="white"/>
<path d="M905.668 214.1V198.248H939.246C945.875 198.248 946.739 189.746 940.831 187.873L913.018 178.794C908.55 177.353 904.804 172.165 904.804 167.409V155.016C904.804 148.098 910.856 142.046 917.773 142.046H963.168V157.898H929.879C923.25 157.898 922.241 166.256 928.149 168.274L955.818 177.353C960.286 178.794 964.033 183.982 964.033 188.737V201.131C964.033 208.048 957.98 214.1 951.063 214.1H905.668Z" fill="white"/>
<path d="M642.435 100.474V84.6221H676.012C682.641 84.6221 683.506 76.1197 677.598 74.2462L649.785 65.1674C645.317 63.7263 641.57 58.5383 641.57 53.7827V41.3893C641.57 34.4721 647.623 28.4195 654.54 28.4195H699.935V44.2715H666.645C660.016 44.2715 659.008 52.6298 664.916 54.6474L692.585 63.7263C697.052 65.1674 700.799 70.3553 700.799 75.1109V87.5043C700.799 94.4215 694.747 100.474 687.829 100.474H642.435Z" fill="white"/>
<path d="M716.608 100.474V-0.402344H733.902V47.8742C733.902 52.0534 738.657 54.0709 741.395 50.7564L759.697 28.4195H782.322L760.129 55.8003C757.535 58.9707 757.247 63.1498 759.553 66.6084L782.61 100.474H761.571L742.116 72.0846C739.378 68.0495 733.902 70.2112 733.902 74.8227V100.474H716.608Z" fill="white"/>
<path d="M792.815 129.296V113.444H833.742C837.345 113.444 840.227 110.562 840.227 106.959C840.227 103.356 837.345 100.474 833.742 100.474H805.641C798.724 100.474 792.671 94.4215 792.671 87.5043V28.4195H809.964V73.0934C809.964 80.8753 816.593 87.5043 824.375 87.5043C832.157 87.5043 838.786 80.8753 838.786 73.0934V28.4195H856.079V116.326C856.079 123.243 850.027 129.296 843.109 129.296H792.815Z" fill="white"/>
</g>
<defs>
<clipPath id="clip0_1011_1017">
<rect width="964" height="243" fill="white"/>
</clipPath>
</defs>
</svg>
