<svg width="550" height="139" viewBox="0 0 550 139" fill="none" xmlns="http://www.w3.org/2000/svg">
<rect width="550" height="139" fill="#000000"/>
<g clip-path="url(#clip0_1_239)">
<path d="M84.9219 82.4785C84.9219 91.1438 91.947 98.168 100.612 98.168H118.108V106.043H100.612C91.947 106.043 84.9219 113.068 84.9219 121.733V138.667H77.6104V121.733C77.6104 113.068 70.5852 106.043 61.9199 106.043H44.4238V98.168H61.9199C70.5852 98.168 77.6104 91.1438 77.6104 82.4785V64.9824H84.9219V82.4785Z" fill="#8B8BFF"/>
<path d="M97.5319 18.1869C91.4047 24.3141 91.4047 34.2484 97.5319 40.3756L109.904 52.7473L104.335 58.3158L91.9634 45.9441C85.8362 39.8168 75.9019 39.8168 69.7746 45.9441L57.8009 57.9179L52.6299 52.7469L64.6037 40.7732C70.7309 34.6459 70.7309 24.7116 64.6037 18.5844L52.2324 6.21312L57.8009 0.644653L70.1726 13.0163C76.2998 19.1435 86.2341 19.1436 92.3613 13.0163L104.733 0.644653L109.904 5.81521L97.5319 18.1869Z" fill="#8B8BFF"/>
<path d="M45.1026 42.9764C42.8599 51.3464 47.827 59.9497 56.197 62.1924L73.097 66.7208L71.0589 74.3269L54.1595 69.7987C45.7895 67.556 37.1862 72.5231 34.9434 80.8931L30.5606 97.2501L23.497 95.3574L27.8796 79.0009C30.1224 70.6309 25.1553 62.0276 16.7853 59.7849L-0.114746 55.2566L1.92345 47.6499L18.8235 52.1782C27.1934 54.421 35.7967 49.4538 38.0395 41.0838L42.5678 24.1838L49.6309 26.0764L45.1026 42.9764Z" fill="#8B8BFF"/>
<path d="M124.613 40.7496C126.856 49.1195 135.459 54.0867 143.829 51.844L160.729 47.3157L162.767 54.9218L145.867 59.4501C137.497 61.6929 132.53 70.2962 134.773 78.6662L139.156 95.0232L132.093 96.9157L127.71 80.5593C125.467 72.1893 116.864 67.2221 108.494 69.4649L91.5939 73.9932L89.5557 66.3866L106.456 61.8582C114.826 59.6155 119.793 51.0121 117.55 42.6422L113.022 25.7422L120.085 23.8496L124.613 40.7496Z" fill="#8B8BFF"/>
<path d="M190.661 57.325C186.714 57.325 183.261 53.8717 183.261 49.9252V-0.229004H193.127V12.104C193.127 14.3239 195.018 16.215 197.238 16.215H212.038C215.984 16.215 219.438 19.6682 219.438 23.6148V49.9252C219.438 53.8717 215.984 57.325 212.038 57.325H190.661ZM193.127 41.7032C193.127 46.1431 196.909 49.9252 201.349 49.9252C205.789 49.9252 209.571 46.1431 209.571 41.7032V31.8368C209.571 27.3969 205.789 23.6148 201.349 23.6148C196.909 23.6148 193.127 27.3969 193.127 31.8368V41.7032Z" fill="#8B8BFF"/>
<path d="M226.841 57.325V-0.229004H236.707V57.325H226.841Z" fill="#8B8BFF"/>
<path d="M251.526 57.325C247.579 57.325 244.126 53.8717 244.126 49.9252V43.512C244.126 40.7988 246.182 37.7566 248.73 36.77L265.339 30.1924C268.299 29.0413 267.559 25.2592 264.434 25.2592H244.619V16.215H270.436C274.383 16.215 277.836 19.6682 277.836 23.6148V49.9252C277.836 53.8717 274.383 57.325 270.436 57.325H251.526ZM254.897 44.992C254.897 48.6097 258.021 51.5696 261.639 51.5696C265.092 51.5696 268.052 48.6097 268.052 44.992C268.052 41.5387 265.092 38.4144 261.639 38.4144C258.021 38.4144 254.897 41.5387 254.897 44.992Z" fill="#8B8BFF"/>
<path d="M292.655 57.325C288.709 57.325 285.255 53.8717 285.255 49.9252V23.6148C285.255 19.6682 288.709 16.215 292.655 16.215H316.006V25.2592H300.055C297.342 25.2592 295.122 27.4791 295.122 30.1924V43.3476C295.122 46.0608 297.342 48.2808 300.055 48.2808H316.006V57.325H292.655Z" fill="#8B8BFF"/>
<path d="M323.093 57.325V-0.229004H332.959V27.3147C332.959 29.6991 335.672 30.8502 337.234 28.9591L347.676 16.215H360.585L347.923 31.8368C346.443 33.6456 346.279 36.03 347.594 38.0033L360.749 57.325H348.745L337.645 41.1277C336.083 38.8255 332.959 40.0588 332.959 42.6898V57.325H323.093Z" fill="#8B8BFF"/>
<path d="M193.488 122.153C189.541 122.153 186.088 118.7 186.088 114.753V108.34C186.088 105.627 188.143 102.584 190.692 101.598L207.301 95.0202C210.261 93.8691 209.521 90.087 206.396 90.087H186.581V81.0428H212.398C216.345 81.0428 219.798 84.496 219.798 88.4426V114.753C219.798 118.7 216.345 122.153 212.398 122.153H193.488ZM196.859 109.82C196.859 113.437 199.983 116.397 203.601 116.397C207.054 116.397 210.014 113.437 210.014 109.82C210.014 106.367 207.054 103.242 203.601 103.242C199.983 103.242 196.859 106.367 196.859 109.82Z" fill="#8B8BFF"/>
<path d="M227.217 122.153V64.5988H237.084V122.153H227.217Z" fill="#8B8BFF"/>
<path d="M244.585 138.597V129.553H267.935C269.991 129.553 271.635 127.908 271.635 125.853C271.635 123.797 269.991 122.153 267.935 122.153H251.902C247.956 122.153 244.503 118.7 244.503 114.753V88.4426C244.503 84.496 247.956 81.0428 251.902 81.0428H273.28C277.226 81.0428 280.679 84.496 280.679 88.4426V131.197C280.679 135.144 277.226 138.597 273.28 138.597H244.585ZM254.369 106.531C254.369 110.971 258.151 114.753 262.591 114.753C267.031 114.753 270.813 110.971 270.813 106.531V96.6646C270.813 92.2247 267.031 88.4426 262.591 88.4426C258.151 88.4426 254.369 92.2247 254.369 96.6646V106.531Z" fill="#8B8BFF"/>
<path d="M294.66 122.153C290.713 122.153 287.26 118.7 287.26 114.753V88.4426C287.26 84.496 290.713 81.0428 294.66 81.0428H316.037C319.984 81.0428 323.437 84.496 323.437 88.4426V114.753C323.437 118.7 319.984 122.153 316.037 122.153H294.66ZM297.127 106.531C297.127 110.971 300.909 114.753 305.349 114.753C309.788 114.753 313.571 110.971 313.571 106.531V96.6646C313.571 92.2247 309.788 88.4426 305.349 88.4426C300.909 88.4426 297.127 92.2247 297.127 96.6646V106.531Z" fill="#8B8BFF"/>
<path d="M330.018 85.976C330.018 83.2627 332.238 81.0428 334.951 81.0428H355.835V90.087H344.817C342.104 90.087 339.884 92.3069 339.884 95.0202V122.153H330.018V85.976Z" fill="#8B8BFF"/>
<path d="M360.173 122.153V81.0428H370.04V122.153H360.173ZM358.364 70.8475C358.364 67.0654 361.407 64.1055 365.106 64.1055C368.806 64.1055 371.931 67.0654 371.931 70.8475C371.931 74.4652 368.806 77.6718 365.106 77.6718C361.407 77.6718 358.364 74.4652 358.364 70.8475Z" fill="#8B8BFF"/>
<path d="M384.232 122.153C380.285 122.153 376.832 118.7 376.832 114.753V67.5587H386.698V76.1096C386.698 78.8228 388.918 81.0428 391.631 81.0428H404.704V90.087H391.631C388.918 90.087 386.698 92.3069 386.698 95.0202V108.175C386.698 110.889 388.918 113.109 391.631 113.109H404.704V122.153H384.232Z" fill="#8B8BFF"/>
<path d="M409.312 122.153V64.5988H419.178V76.9318C419.178 79.1517 421.069 81.0428 423.289 81.0428H438.089C442.035 81.0428 445.489 84.496 445.489 88.4426V122.153H435.622V96.6646C435.622 92.2247 431.84 88.4426 427.4 88.4426C422.96 88.4426 419.178 92.2247 419.178 96.6646V122.153H409.312Z" fill="#8B8BFF"/>
<path d="M452.07 88.4426C452.07 84.496 455.523 81.0428 459.469 81.0428H503.868C507.815 81.0428 511.268 84.496 511.268 88.4426V122.153H501.402V95.8424C501.402 91.8958 497.948 88.4426 494.002 88.4426C490.055 88.4426 486.602 91.8958 486.602 95.8424V122.153H476.736V95.8424C476.736 91.8958 473.282 88.4426 469.336 88.4426C465.389 88.4426 461.936 91.8958 461.936 95.8424V122.153H452.07V88.4426Z" fill="#8B8BFF"/>
<path d="M516.72 122.153V113.109H535.877C539.659 113.109 540.153 108.258 536.782 107.189L520.913 102.009C518.365 101.187 516.227 98.2268 516.227 95.5135V88.4426C516.227 84.496 519.68 81.0428 523.627 81.0428H549.526V90.087H530.533C526.751 90.087 526.175 94.8557 529.546 96.0068L545.333 101.187C547.882 102.009 550.019 104.969 550.019 107.682V114.753C550.019 118.7 546.566 122.153 542.619 122.153H516.72Z" fill="#8B8BFF"/>
<path d="M366.535 57.3245V48.2803H385.692C389.474 48.2803 389.968 43.4293 386.597 42.3605L370.728 37.1806C368.179 36.3584 366.042 33.3985 366.042 30.6852V23.6143C366.042 19.6677 369.495 16.2145 373.441 16.2145H399.341V25.2587H380.348C376.566 25.2587 375.99 30.0275 379.361 31.1785L395.147 36.3584C397.696 37.1806 399.834 40.1405 399.834 42.8538V49.9247C399.834 53.8713 396.381 57.3245 392.434 57.3245H366.535Z" fill="#8B8BFF"/>
<path d="M408.854 57.3245V-0.229492H418.72V27.3142C418.72 29.6986 421.433 30.8497 422.996 28.9586L433.437 16.2145H446.346L433.684 31.8363C432.204 33.6451 432.04 36.0295 433.355 38.0028L446.51 57.3245H434.506L423.407 41.1272C421.844 38.825 418.72 40.0583 418.72 42.6893V57.3245H408.854Z" fill="#8B8BFF"/>
<path d="M452.333 73.7685V64.7243H475.683C477.739 64.7243 479.383 63.0799 479.383 61.0244C479.383 58.9689 477.739 57.3245 475.683 57.3245H459.65C455.704 57.3245 452.25 53.8713 452.25 49.9247V16.2145H462.117V41.7027C462.117 46.1426 465.899 49.9247 470.339 49.9247C474.779 49.9247 478.561 46.1426 478.561 41.7027V16.2145H488.427V66.3687C488.427 70.3153 484.974 73.7685 481.027 73.7685H452.333Z" fill="#8B8BFF"/>
</g>
<defs>
<clipPath id="clip0_1_239">
<rect width="550" height="138.641" fill="white"/>
</clipPath>
</defs>
</svg>
