<?xml version="1.0" encoding="UTF-8" standalone="no"?>
<!-- Created with Inkscape (http://www.inkscape.org/) -->

<svg
   width="44mm"
   height="44mm"
   viewBox="0 0 44 44"
   version="1.1"
   id="svg1"
   inkscape:version="1.4.2 (ebf0e940, 2025-05-08)"
   xmlns:inkscape="http://www.inkscape.org/namespaces/inkscape"
   xmlns:sodipodi="http://sodipodi.sourceforge.net/DTD/sodipodi-0.dtd"
   xmlns="http://www.w3.org/2000/svg"
   xmlns:svg="http://www.w3.org/2000/svg">
  <sodipodi:namedview
     id="namedview1"
     pagecolor="#ffffff"
     bordercolor="#000000"
     borderopacity="0.25"
     inkscape:showpageshadow="2"
     inkscape:pageopacity="0.0"
     inkscape:pagecheckerboard="0"
     inkscape:deskcolor="#d1d1d1"
     inkscape:document-units="mm"
     inkscape:zoom="7.1868217"
     inkscape:cx="81.259843"
     inkscape:cy="25.602416"
     inkscape:window-width="2560"
     inkscape:window-height="1387"
     inkscape:window-x="0"
     inkscape:window-y="494"
     inkscape:window-maximized="1"
     inkscape:current-layer="layer1" />
  <defs
     id="defs1" />
  <g
     inkscape:label="blacksky logo"
     inkscape:groupmode="layer"
     id="layer1"
     style="fill:#8b8bff;fill-opacity:1"
     transform="translate(-86.595813,-126.43421)">
    <path
       d="m 109.5472,151.82688 c 0,2.29269 1.85872,4.15118 4.15133,4.15118 h 4.62915 v 2.08359 h -4.62915 c -2.29261,0 -4.15133,1.8587 -4.15133,4.15131 v 4.48046 h -1.9345 v -4.48046 c 0,-2.29261 -1.85876,-4.15131 -4.15145,-4.15131 h -4.629176 v -2.08359 h 4.629176 c 2.29269,0 4.15145,-1.85849 4.15145,-4.15118 v -4.62918 h 1.9345 z"
       fill="#000000"
       id="path1"
       style="fill:#8b8bff;fill-opacity:1;stroke-width:0.264583"
       inkscape:label="bottom" />
    <path
       d="m 112.88359,134.81639 c -1.62115,1.62116 -1.62115,4.24961 0,5.87076 l 3.27345,3.27335 -1.47346,1.47333 -3.27332,-3.27335 c -1.62116,-1.62118 -4.24961,-1.62118 -5.87079,0 l -3.16804,3.16807 -1.36816,-1.36816 3.16807,-3.16804 c 1.62115,-1.62118 1.62115,-4.24963 0,-5.87079 l -3.27324,-3.27323 1.47333,-1.47333 3.27335,3.27334 c 1.62115,1.62115 4.2496,1.62118 5.87076,0 l 3.27334,-3.27334 1.36816,1.36805 z"
       fill="#000000"
       id="path2"
       style="fill:#8b8bff;fill-opacity:1;stroke-width:0.264583" />
    <path
       d="m 99.011673,141.37528 c -0.593381,2.21456 0.720831,4.49085 2.935397,5.08423 l 4.47145,1.19814 -0.53924,2.01245 -4.4713,-1.19809 c -2.214565,-0.59338 -4.490854,0.72083 -5.084262,2.9354 l -1.159616,4.32779 -1.86891,-0.50078 1.159562,-4.32766 c 0.593408,-2.21456 -0.720804,-4.49085 -2.935366,-5.08423 l -4.471471,-1.19811 0.539273,-2.01261 4.471471,1.19811 c 2.214536,0.59341 4.490826,-0.72083 5.084234,-2.93539 l 1.198112,-4.47146 1.868783,0.50075 z"
       fill="#000000"
       id="path3"
       style="fill:#8b8bff;fill-opacity:1;stroke-width:0.264583" />
    <path
       d="m 120.0488,140.7861 c 0.59346,2.21454 2.86967,3.52878 5.08423,2.9354 l 4.47146,-1.19811 0.53922,2.01244 -4.47146,1.19812 c -2.21456,0.5934 -3.52874,2.86969 -2.93528,5.08426 l 1.15966,4.32778 -1.86875,0.50073 -1.15967,-4.32763 c -0.59346,-2.21456 -2.86967,-3.5288 -5.08423,-2.9354 l -4.47148,1.19812 -0.53928,-2.01258 4.47154,-1.19814 c 2.21456,-0.59338 3.52875,-2.8697 2.93529,-5.08423 l -1.19804,-4.47146 1.86876,-0.50075 z"
       fill="#000000"
       id="path4"
       style="fill:#8b8bff;fill-opacity:1;stroke-width:0.264583" />
  </g>
</svg>
